Coordinates
version=1
nRows=21
nColumns=12
inDegrees=yes

Units are S.I. units (second, meters, Newtons, ...)
Angles are in degrees

endheader
time	SC_y	SC_z	SC_x	AC_y	AC_z	AC_x	GH_y	GH_z	GH_yy	EL_x	PS_y
       0.0              -44.53          9.271          33.02          57.72         -19.47         -8.223         -90.96         -4.237          124.0          106.4          67.74
   0.03423              -44.53          9.273          33.03          57.72         -19.47         -8.221         -90.95         -4.237          124.0          106.4          67.74
   0.06847              -44.54          9.276          33.03          57.71         -19.47         -8.219         -90.95         -4.237          124.0          106.4          67.74
    0.1027              -44.54          9.279          33.04          57.71         -19.46         -8.217         -90.94         -4.238          123.9          106.4          67.74
    0.1369              -44.54          9.283          33.04          57.71         -19.46         -8.215         -90.94         -4.238          123.9          106.4          67.74
    0.1712              -44.54          9.286          33.05          57.71         -19.46         -8.213         -90.93         -4.239          123.8          106.4          67.74
    0.2054              -44.54           9.29          33.05           57.7         -19.46          -8.21         -90.93          -4.24          123.8          106.4          67.75
    0.2396              -44.54          9.294          33.06           57.7         -19.46         -8.208         -90.92          -4.24          123.7          106.4          67.75
    0.2739              -44.54          9.298          33.07           57.7         -19.45         -8.205         -90.91         -4.241          123.7          106.3          67.75
    0.3081              -44.54          9.303          33.08          57.69         -19.45         -8.202          -90.9         -4.242          123.6          106.3          67.75
    0.3423              -44.55          9.308          33.09          57.69         -19.45         -8.199          -90.9         -4.242          123.6          106.3          67.75
    0.3766              -44.55          9.313          33.09          57.68         -19.45         -8.196         -90.89         -4.243          123.5          106.3          67.76
    0.4108              -44.55          9.319           33.1          57.68         -19.44         -8.192         -90.88         -4.244          123.4          106.3          67.76
     0.445              -44.55          9.325          33.11          57.67         -19.44         -8.188         -90.87         -4.245          123.3          106.3          67.76
    0.4793              -44.55          9.332          33.13          57.67         -19.44         -8.184         -90.85         -4.246          123.2          106.2          67.76
    0.5135              -44.56          9.339          33.14          57.66         -19.43         -8.179         -90.84         -4.247          123.2          106.2          67.77
    0.5477              -44.56          9.347          33.15          57.66         -19.43         -8.174         -90.83         -4.249          123.1          106.2          67.77
     0.582              -44.56          9.356          33.17          57.65         -19.42         -8.169         -90.81          -4.25          122.9          106.2          67.77
    0.6162              -44.56          9.365          33.18          57.64         -19.42         -8.163          -90.8         -4.252          122.8          106.1          67.77
    0.6504              -44.57          9.375           33.2          57.63         -19.41         -8.156         -90.78         -4.253          122.7          106.1          67.78
    0.6847              -44.57          9.387          33.22          57.62         -19.41         -8.149         -90.76         -4.255          122.6          106.1          67.78
